<svg xmlns="http://www.w3.org/2000/svg" viewBox="0 0 1600 900">
  <defs>
    <linearGradient id="stormSky" x1="0" x2="0" y1="0" y2="1">
      <stop offset="0%" stop-color="#131726"/>
      <stop offset="100%" stop-color="#27334a"/>
    </linearGradient>
  </defs>
  <rect width="1600" height="900" fill="url(#stormSky)"/>
  <g fill="#8f98ad" opacity="0.8">
    <ellipse cx="420" cy="260" rx="220" ry="88"/>
    <ellipse cx="700" cy="230" rx="260" ry="100"/>
    <ellipse cx="1000" cy="270" rx="250" ry="94"/>
  </g>
  <path d="M760 320L670 520H760L700 690L920 430H810L900 320Z" fill="#ffd364" opacity="0.95"/>
  <g stroke="#a7d4ff" stroke-width="10" stroke-linecap="round" opacity="0.55">
    <line x1="480" y1="380" x2="440" y2="520"/>
    <line x1="930" y1="380" x2="890" y2="520"/>
    <line x1="1080" y1="390" x2="1040" y2="530"/>
  </g>
  <path d="M0 740C180 700 340 720 520 770S910 830 1140 776 1440 730 1600 770V900H0Z" fill="#0d1320"/>
</svg>
